<svg width="50" height="41" viewBox="0 0 50 41" fill="none" xmlns="http://www.w3.org/2000/svg">
<path d="M40.69 27.8955C40.9105 27.6992 41.0733 27.5444 41.3331 27.4363C41.6386 27.3095 41.7717 26.9006 42.0481 26.754C42.5129 26.508 42.8493 26.2568 43.1346 25.7918C43.509 25.1819 43.9756 24.5007 44.0083 23.7483C44.0648 22.4327 44.3792 22.9743 44.1908 20.9074C44.1468 20.4243 43.7664 20.037 43.5316 19.6543C43.2951 19.2682 43.1453 18.8604 42.8255 18.5052C41.3527 16.8689 41.6184 17.2591 39.7099 16.3303C39.185 16.075 37.9012 15.7443 37.3805 15.6871C36.6477 15.6059 35.8899 15.6187 35.1564 15.6836C34.8533 15.7105 34.4967 15.8483 34.2078 15.9307L32.943 16.2917C32.6322 16.3805 32.2244 16.481 31.9682 16.6703L31.1843 17.2486C30.3046 17.8977 29.9967 18.7202 29.4333 18.5409C29.1444 18.4491 29.0279 18.2055 28.9988 17.9099C28.9625 17.5419 29.1028 17.3912 29.3453 17.1721C30.6904 15.9587 31.0256 15.5849 31.6342 13.8674C31.9165 13.0705 31.8815 12.3596 31.6978 11.5569C31.4928 10.6607 31.3727 9.73948 30.8752 8.94498C30.4229 8.22292 28.6963 7.01599 27.8737 7.00489L26.594 6.98737C26.5369 6.98678 26.4947 7.00314 26.4769 7.02359C26.2362 7.30692 27.4404 7.05688 27.9248 7.1965C28.2683 7.29582 28.66 7.47458 28.9388 7.69891C29.2175 7.92323 29.1189 8.80419 28.6874 8.83574C28.4056 8.85618 28.1483 8.20072 27.8077 8.16451C27.4208 8.12361 27.016 8.08973 26.6136 8.14639C26.1019 8.21825 25.5854 8.84041 25.0469 8.79601C24.6576 8.76388 24.9529 8.09265 25.1669 7.94193C25.5509 7.67145 25.8065 7.38987 26.3319 7.28238C26.0644 7.08609 25.7708 7.23623 25.5372 7.3554L23.9134 8.18145C22.623 8.83749 22.5404 9.56597 21.8955 10.68C21.6518 11.1006 21.5353 11.5166 21.3374 11.9384C20.9844 12.6902 20.2206 14.2611 20.1422 15.0416C20.1196 15.2682 19.7897 15.5551 19.5484 15.419C19.1763 15.2098 18.7698 14.7793 18.762 14.3335L18.6949 10.3932C18.6877 9.98717 18.3525 9.59284 18.7727 9.24058C18.7472 8.33684 18.6866 7.43076 18.7727 6.51943C18.7983 6.24778 19.0033 6.04858 18.973 5.72085C18.9558 5.53274 19.2108 5.32068 19.2803 5.10745C19.4723 4.51742 19.6031 3.77842 20.0625 3.34086C20.346 3.07097 20.4691 2.83437 20.7193 2.53877C21.8331 1.21968 23.5657 0.369681 25.3108 0.275043C25.7423 0.251675 25.9866 0.148274 26.3604 0.0886868C27.3952 -0.0766385 28.4841 0.0401991 29.529 0.0384465C29.7822 0.0384465 29.9551 0.35975 30.1923 0.393633C30.7326 0.470746 31.1908 0.745899 31.6847 0.89253C32.2833 1.07012 32.7421 1.37741 33.2598 1.67943C33.677 1.92362 34.0242 2.11816 34.36 2.49262C34.8426 3.03066 35.2943 3.48107 35.6159 4.23117C35.8917 4.87377 36.3119 5.45854 36.4301 6.16132C36.4712 6.40493 36.5276 6.59713 36.6239 6.83139C36.7993 7.25843 36.527 7.80114 36.6732 8.22818C36.8611 8.77907 36.977 9.31419 36.6697 9.88027C36.5954 10.017 36.697 10.2734 36.6334 10.4376L35.9208 12.2719C36.3553 11.9308 38.3951 11.3653 38.6513 11.3624C39.8388 11.3466 41.0401 11.2233 42.1741 11.4009C43.4579 11.6025 44.6395 12.1405 45.5626 12.956C45.9584 13.3059 46.2205 13.608 46.6752 13.8837C47.3177 14.2734 47.713 15.0369 47.9698 15.7274C48.1178 16.1258 48.3032 16.4448 48.4637 16.8344L48.8886 17.8661L49.2506 18.7535C49.4075 19.1385 49.6227 19.6064 49.6506 20.0171C49.6768 20.4015 49.8598 20.6492 49.9139 20.9956C50.0144 21.6371 50.0417 22.4169 49.9151 23.0642C49.8081 23.6104 49.4943 24.0836 49.4254 24.6567C49.341 25.3566 48.4869 27.4392 48.0708 27.9299C47.9757 28.0421 46.8286 29.5271 46.9683 29.3869L46.1326 30.224C45.7522 30.6049 45.5043 31.0074 45.0496 31.3492C44.3263 31.8931 43.6 32.375 42.7328 32.7355C42.032 33.0264 41.3961 33.4528 40.6335 33.6071L39.6796 33.7999C39.1981 33.8974 38.558 33.9044 38.0718 33.8016C36.6305 33.4961 37.4632 33.8261 35.8483 33.3822C35.4607 33.2758 35.0714 33.0439 34.7344 32.8476L33.869 32.3435L32.9424 31.7932L32.0211 31.2429L31.0868 30.6972C30.7783 30.5173 30.4835 30.3724 30.1822 30.1767L29.4 29.6679C29.0749 29.4564 28.8419 29.0142 29.1165 28.6894C29.2258 28.5603 29.6003 28.3914 29.7483 28.4633L31.0208 29.0808L34.1002 30.0622C34.5145 30.1942 35.1273 30.0903 35.5523 30.0505C35.8839 30.0196 36.1044 29.8572 36.4866 29.8706C36.7511 29.8799 37.1208 29.6504 37.4275 29.6206C38.0587 29.5586 39.1731 29.0732 39.6243 28.6128C39.9072 28.3237 40.3696 28.1788 40.6888 27.8949L40.69 27.8955Z" fill="#F6C177"/>
<path d="M11.4145 30.1306C12.2668 29.5832 12.3203 30.1387 13.4407 29.7824C13.9102 29.6328 14.416 29.5855 14.8571 29.3367C15.3409 29.0633 15.8734 28.8798 16.3347 28.5772C16.715 28.3278 17.0782 28.1519 17.4871 27.9387C17.9953 27.6741 18.4744 27.3224 18.9398 26.9882L19.6334 26.4911C20.724 25.7094 20.7151 24.9523 21.2602 24.8361C21.4498 24.7958 21.546 25.0324 21.6209 25.141C21.7535 25.3344 21.5799 25.481 21.5437 25.6744C21.3832 26.532 20.7223 28.1928 20.2117 28.8792L19.7077 29.5563C19.256 30.1639 18.7038 30.7329 18.0779 31.1605L17.4461 31.5928C16.7644 32.0596 15.2577 32.968 14.5486 33.2051C13.833 33.4447 13.1001 33.5697 12.3839 33.7438C11.6677 33.9179 11.0537 33.7257 10.3423 33.6696L9.41564 33.596C8.54727 33.527 7.76212 33.1199 6.93 32.7717C5.9915 32.3797 5.27113 31.5957 4.82833 30.6803L3.51537 27.9661C2.84255 26.5752 3.00065 24.2723 3.04345 22.7266C3.05296 22.386 3.33944 22.084 3.20452 21.6966C3.09159 21.373 3.28179 21.0628 3.32636 20.752C3.53499 19.3003 4.02415 17.9315 4.97395 16.7258C5.453 16.1176 6.07233 15.5755 6.6661 15.0497C6.82064 14.913 8.8082 13.9001 9.38889 13.8995C10.3226 13.8977 10.6971 13.5087 12.7708 13.7377C13.5352 13.8218 15.2731 14.2979 15.9103 14.6735C16.2241 14.8587 16.5546 15.1199 16.8214 15.3436C17.1929 15.6544 17.3861 16.1977 17.6963 16.5645C17.9733 16.8923 17.8717 17.3947 18.0024 17.7358C18.2568 18.3989 18.1724 18.9726 18.0054 19.635C17.7587 20.6141 17.8747 21.7083 16.9308 22.9141L16.4214 23.5649C16.2104 23.8348 16.082 24.0521 15.8318 24.2881C15.2571 24.8302 14.6306 25.3683 13.805 25.4798C13.6772 25.4974 13.5714 25.3642 13.5619 25.2771C13.5073 24.7823 14.2686 24.6579 14.756 22.6208C14.8363 22.2867 14.8398 22.1687 14.7584 21.8316C14.6074 21.2088 14.3774 20.6065 14.1046 20.0235C13.792 19.3552 13.3408 18.9463 12.6413 18.7109C12.2115 18.5666 11.8216 18.5858 11.3658 18.5455C10.2151 18.4427 9.22188 18.958 8.67506 19.9628C8.69824 19.9201 7.14576 22.0004 7.05839 22.185C6.88959 22.5408 6.46283 23.6922 6.45392 24.0398C6.44025 24.5597 6.36298 25.1019 6.4551 25.6195C6.58587 26.3555 6.8462 27.1471 7.2676 27.7769C7.79896 28.5702 8.7137 28.9628 9.53333 29.3957C9.82694 29.5505 10.0344 29.8303 10.3779 29.8618C10.7476 29.8957 11.0906 29.8992 11.4121 30.1294L11.4145 30.1306Z" fill="#F6C177"/>
<path d="M13.6998 39.0511L10.2596 39.1522C9.9048 39.1627 9.7259 39.3345 9.35323 39.1446C9.01028 38.9699 8.49378 39.2229 8.11457 39.0873C7.30683 38.7993 6.50622 38.6299 5.69135 38.4763C5.34364 38.4109 3.0589 36.9416 2.73913 36.646L1.46125 35.4648C1.25084 35.2703 -0.125116 34.4162 0.00921084 33.8869C0.0846953 33.5901 0.315903 33.3874 0.674305 33.3734C0.940581 33.3629 1.23539 33.4499 1.32157 33.7175C1.44341 34.096 1.78874 34.1807 2.05026 34.4249L3.53974 35.8147L4.22386 36.316C6.01765 37.631 5.65568 37.2723 7.33833 37.7238L8.7446 38.1012C10.1241 38.4716 15.436 37.8343 14.6146 37.7647C14.5777 37.7618 16.0303 37.1624 16.0678 37.1537C16.8208 36.9784 18.0648 36.1845 18.6723 35.7347C19.1311 35.3953 19.5531 35.1487 19.8063 34.5897C19.9068 34.3677 20.2367 34.1007 20.4596 33.988L21.5948 33.4137C22.1327 33.1415 22.538 33.1929 23.0545 33.3272C23.9883 33.5709 24.2677 33.7484 24.6902 34.592C24.9446 35.1008 24.7818 35.473 24.7057 35.9473C24.4602 37.4697 23.6394 38.2595 22.1089 38.6387C21.5187 38.7847 21.0052 38.8274 20.3431 38.5347C20.5416 39.0038 21.0593 39.3286 21.4985 39.4098L22.3324 39.5646C22.6956 39.6324 23.0795 39.8071 23.4302 39.7849C24.2159 39.7352 24.9904 39.2959 25.6252 38.8794C26.008 38.6282 26.7051 37.8167 26.8739 37.4148L27.2252 36.5806C27.3459 36.2943 27.5789 35.9152 28.008 36.0057C28.2297 36.0525 28.4425 36.4164 28.5394 36.6437L27.0962 39.5027C26.3063 39.9946 25.5978 40.6127 24.7105 40.9293C24.2124 41.1075 23.5913 40.872 23.0748 40.983C22.7413 41.0549 22.5303 40.8802 22.2539 40.8013C20.6307 40.3363 20.5457 40.8592 19.212 39.3485C19.0955 39.2164 19.0146 38.8513 18.973 38.6843C18.8268 38.1024 18.9493 37.4896 18.9671 36.9253C18.0286 37.4814 14.6508 39.0213 13.6998 39.0494V39.0511Z" fill="#F6C177"/>
<path d="M43.3908 24.0971C43.1352 24.5615 41.9494 25.502 41.7045 25.2473C41.4436 24.9757 41.7586 24.7116 41.8941 24.4826C42.2341 23.9072 42.8826 22.7254 42.8689 22.1424C42.8552 21.5594 42.4766 21.0996 42.0493 20.8174C41.8787 20.7047 42.0291 20.3933 42.0992 20.2665C42.1979 20.0884 42.4832 20.0621 42.6662 20.0469C43.1114 20.0095 43.2035 20.273 43.3979 20.5411C44.2276 21.6855 44.0571 22.8849 43.3908 24.0971Z" fill="#F6C177"/>
</svg>
